<svg height="50" viewBox="0 0 512 512" width="50" xmlns="http://www.w3.org/2000/svg" xmlns:xlink="http://www.w3.org/1999/xlink"><linearGradient id="New_Gradient_Swatch_8" gradientUnits="userSpaceOnUse" x1="44.95" x2="463.001" y1="559.05" y2="140.999"><stop offset=".011" stop-color="#fad46a"/><stop offset="1" stop-color="#fce6aa"/></linearGradient><linearGradient id="New_Gradient_Swatch_3" gradientUnits="userSpaceOnUse" x1="131.357" x2="381.802" y1="527.014" y2="276.569"><stop offset=".011" stop-color="#606082"/><stop offset="1" stop-color="#83839e"/></linearGradient><linearGradient id="New_Gradient_Swatch_13" gradientUnits="userSpaceOnUse" x1="195.432" x2="316.568" y1="150.966" y2="29.83"><stop offset="0" stop-color="#d46669"/><stop offset="1" stop-color="#dd888a"/></linearGradient><linearGradient id="New_Gradient_Swatch_22" gradientUnits="userSpaceOnUse" x1="227.729" x2="284.271" y1="116.271" y2="59.729"><stop offset=".011" stop-color="#dcdce3"/><stop offset="1" stop-color="#ededf1"/></linearGradient><linearGradient id="New_Gradient_Swatch_3-2" x1="229.461" x2="229.476" xlink:href="#New_Gradient_Swatch_3" y1="178.255" y2="178.24"/><linearGradient id="New_Gradient_Swatch_11" gradientUnits="userSpaceOnUse" x1="410.171" x2="498.04" y1="356.699" y2="268.829"><stop offset=".011" stop-color="#60c6be"/><stop offset="1" stop-color="#80d1cb"/></linearGradient><linearGradient id="New_Gradient_Swatch_11-2" x1="321.139" x2="379.072" xlink:href="#New_Gradient_Swatch_11" y1="245.05" y2="187.117"/><linearGradient id="New_Gradient_Swatch_11-3" x1="181.581" x2="258.419" xlink:href="#New_Gradient_Swatch_11" y1="353.11" y2="276.273"/><linearGradient id="New_Gradient_Swatch_11-4" x1="74.607" x2="181.393" xlink:href="#New_Gradient_Swatch_11" y1="483.42" y2="376.634"/><g id="_28-route" data-name="28-route"><g id="gradient"><rect fill="url(#New_Gradient_Swatch_8)" height="328" rx="12" width="504" x="4" y="184"/><path d="m411.146 391.612c-.013-.14-.031-.28-.049-.42-6.825-49.476-33.269-93.092-76.484-126.146-6.907-5.548-14.213-9.466-21.28-13.257-14.761-7.916-25.426-13.636-29.691-30.7-1.922-7.692-.665-30.022.043-34.36a11.991 11.991 0 0 0 .309-2.731h-57.516c-6.951 14.445-19.82 48.955-5.62 84.457 8.258 20.646 21.813 36.468 34.922 51.77 19.435 22.685 38.076 41.493 29.522 68.412-12.444 39.155-86.977 98.1-147.253 120.088a11.941 11.941 0 0 0 -4.819 3.275h261.033c14.357-33.17 20.037-89.534 16.883-120.388z" fill="url(#New_Gradient_Swatch_3)"/><g fill="#cacad5"><path d="m284.894 264.185a12 12 0 0 0 -18.213 15.63c1.328 1.547 2.749 3.151 4.223 4.766a12 12 0 1 0 17.725-16.181c-1.31-1.435-2.567-2.853-3.735-4.215z"/><path d="m339.87 321.959c-2.415-3.072-5-6.155-7.908-9.424a12 12 0 0 0 -17.934 15.949c2.579 2.9 4.859 5.617 6.97 8.3a12 12 0 1 0 18.872-14.828z"/><path d="m352.246 373.833h-.271a12 12 0 0 0 -11.993 11.733 66.781 66.781 0 0 1 -.926 9.743 12 12 0 1 0 23.656 4.045 90.97 90.97 0 0 0 1.265-13.254 12 12 0 0 0 -11.731-12.267z"/><path d="m312.045 440.972c-2.48 2.365-5.191 4.783-8.057 7.185a12 12 0 1 0 15.418 18.393c3.258-2.732 6.355-5.494 9.2-8.211a12 12 0 1 0 -16.564-17.367z"/><path d="m254.5 482.517q-2.588 1.675-5.1 3.332a12 12 0 1 0 13.2 20.041q2.433-1.6 4.944-3.227a12 12 0 1 0 -13.044-20.146z"/></g><path d="m256 4a84.1 84.1 0 0 0 -84 84c0 22.962 13.148 49.215 39.081 78.027a323.441 323.441 0 0 0 37.552 35.446 12 12 0 0 0 14.734 0 323.5 323.5 0 0 0 37.553-35.446c25.932-28.812 39.08-55.065 39.08-78.027a84.1 84.1 0 0 0 -84-84z" fill="url(#New_Gradient_Swatch_13)"/><circle cx="256" cy="88" fill="url(#New_Gradient_Swatch_22)" r="40"/><path d="m229.474 178.237-.011.02v-.009z" fill="url(#New_Gradient_Swatch_3-2)"/><path d="m492.78 277.029c-10.104-27.229-23.117-41.029-38.675-41.029s-28.569 13.8-38.674 41.028c-7.367 19.846-11.22 41.723-11.22 53.077a49.895 49.895 0 1 0 99.789 0c0-11.354-3.854-33.232-11.22-53.076z" fill="url(#New_Gradient_Swatch_11)"/><path d="m350.105 166.667c-11.327 0-20.443 9.087-27.1 27.009-4 10.785-6.8 24.121-6.8 32.429a33.895 33.895 0 1 0 67.789 0c0-8.309-2.8-21.644-6.8-32.429-6.645-17.922-15.761-27.009-27.089-27.009z" fill="url(#New_Gradient_Swatch_11-2)"/><path d="m254.409 283.863c-8.833-23.797-20.409-35.863-34.409-35.863s-25.576 12.066-34.409 35.863c-5.557 14.973-9.591 34.1-9.591 45.47a44 44 0 1 0 88 0c0-11.374-4.033-30.497-9.591-45.47z" fill="url(#New_Gradient_Swatch_11-3)"/><path d="m128 336c-18.23 0-33.7 16.783-45.988 49.883-9.199 24.783-14.012 52.017-14.012 66.117a60 60 0 0 0 120 0c0-14.1-4.813-41.334-14.012-66.117-12.288-33.1-27.758-49.883-45.988-49.883z" fill="url(#New_Gradient_Swatch_11-4)"/></g></g></svg>